<?xml version="1.0" standalone="no"?>
<!DOCTYPE svg PUBLIC "-//W3C//DTD SVG 20010904//EN"
 "http://www.w3.org/TR/2001/REC-SVG-20010904/DTD/svg10.dtd">
<svg version="1.0" xmlns="http://www.w3.org/2000/svg"
 width="1500.000000pt" height="1184.000000pt" viewBox="0 0 1500.000000 1184.000000"
 preserveAspectRatio="xMidYMid meet">

<g transform="translate(0.000000,1184.000000) scale(0.100000,-0.100000)"
fill="#000000" stroke="none">
<path d="M12510 11630 c-327 -27 -582 -136 -796 -342 -47 -45 -108 -112 -135
-148 -69 -91 -144 -247 -173 -360 -84 -320 -40 -652 130 -992 24 -48 44 -89
44 -91 0 -3 -30 -7 -67 -11 -38 -4 -108 -16 -158 -27 -271 -60 -488 -174 -673
-353 -237 -229 -337 -453 -336 -756 0 -153 15 -229 70 -348 114 -250 381 -463
661 -528 231 -53 562 -26 832 68 261 91 569 286 810 513 44 42 75 64 82 59 7
-4 78 -57 158 -117 403 -305 730 -481 933 -502 61 -7 67 -5 77 14 10 17 4 39
-33 130 -122 296 -276 544 -593 953 l-114 147 45 148 c24 81 58 209 76 284
l31 136 323 -5 c730 -11 1013 70 1183 339 97 154 133 348 46 248 -112 -131
-245 -189 -463 -204 -98 -7 -1041 -35 -1165 -35 l-83 0 1 -207 c2 -182 -1
-223 -21 -323 -19 -94 -65 -255 -77 -268 -2 -2 -46 33 -99 78 -317 273 -601
431 -972 540 l-72 21 -27 61 c-68 152 -125 349 -161 553 -25 151 -23 409 5
545 53 252 180 439 362 535 132 69 326 99 490 76 107 -16 142 -25 262 -74 54
-21 99 -37 101 -36 9 13 87 201 84 204 -14 13 -251 65 -323 70 -49 3 -108 7
-130 9 -22 2 -83 0 -135 -4z m-778 -2212 c188 -276 493 -606 853 -923 50 -44
91 -84 93 -90 2 -7 -46 -59 -106 -117 -219 -211 -483 -354 -772 -415 -118 -25
-367 -24 -465 1 -92 24 -199 74 -267 124 -237 175 -321 541 -204 885 119 347
442 608 762 616 l50 1 56 -82z m483 3 c220 -53 466 -181 680 -354 44 -36 100
-86 124 -111 l45 -46 -18 -37 c-38 -80 -123 -208 -180 -269 l-59 -64 -41 33
c-121 95 -348 347 -457 507 -76 111 -199 328 -199 353 0 11 17 9 105 -12z
m1026 -712 c126 -154 188 -249 263 -399 74 -151 110 -260 104 -323 l-3 -37
-168 95 c-148 84 -188 113 -342 247 -96 83 -175 155 -175 160 0 5 26 44 58 86
32 42 85 119 118 169 32 51 62 93 65 93 3 0 39 -41 80 -91z"/>
<path d="M5440 7874 c-8 -3 -35 -12 -59 -21 l-44 -16 7 -84 c17 -227 93 -429
223 -595 53 -67 57 -67 141 -10 201 135 228 439 55 623 -65 69 -136 102 -232
106 -42 1 -83 0 -91 -3z"/>
<path d="M12230 7450 c0 -16 5 -30 10 -30 6 0 10 6 10 14 0 15 21 26 51 26 17
0 19 -8 19 -103 0 -98 -1 -105 -22 -115 -19 -9 -11 -11 45 -11 l67 -1 -20 20
c-18 18 -20 31 -18 113 3 92 3 92 30 95 19 2 31 -3 40 -17 18 -29 28 -26 28 9
l0 30 -120 0 -120 0 0 -30z"/>
<path d="M12513 7462 c23 -26 24 -177 1 -210 -15 -22 -15 -22 28 -22 38 1 41
2 25 14 -15 12 -17 27 -15 101 l3 86 44 -101 c24 -55 47 -97 52 -93 4 4 25 51
46 103 l38 95 3 -89 c2 -75 0 -90 -15 -102 -16 -12 -11 -13 41 -14 57 0 58 1
43 18 -13 14 -17 39 -17 107 0 68 4 93 17 107 15 17 14 18 -31 18 -44 0 -47
-2 -61 -37 -9 -21 -24 -56 -34 -78 l-18 -40 -36 78 -36 77 -47 0 c-45 0 -46
-1 -31 -18z"/>
<path d="M5454 4680 c-22 -5 -58 -16 -79 -24 l-38 -16 7 -79 c10 -114 39 -244
75 -336 55 -143 170 -315 210 -315 26 0 101 52 143 98 65 72 108 183 108 278
0 121 -69 264 -159 330 -76 55 -184 81 -267 64z"/>
<path d="M89 2153 c-11 -13 -15 -83 -17 -342 -2 -363 -1 -374 56 -379 59 -6
62 4 62 175 0 169 9 209 55 239 15 10 46 17 72 17 38 0 50 -5 70 -27 22 -26
23 -33 23 -194 0 -187 7 -212 60 -212 59 0 62 12 58 234 -3 190 -4 203 -26
239 -27 42 -50 57 -105 68 -53 9 -115 -7 -159 -42 -20 -16 -39 -29 -42 -29 -3
0 -6 54 -6 119 0 95 -3 123 -16 135 -20 21 -68 20 -85 -1z"/>
<path d="M1907 2152 c-15 -17 -17 -56 -17 -354 0 -312 1 -336 18 -351 24 -22
65 -21 85 1 15 17 17 56 17 354 0 312 -1 336 -18 351 -24 22 -65 21 -85 -1z"/>
<path d="M5527 2152 c-14 -15 -17 -40 -17 -125 0 -59 -2 -107 -4 -107 -2 0
-24 12 -50 26 -89 50 -218 27 -282 -49 -49 -58 -68 -114 -67 -202 0 -125 44
-205 139 -251 71 -35 161 -32 221 7 l38 26 18 -23 c22 -29 67 -32 90 -6 15 17
17 56 17 354 0 312 -1 336 -18 351 -24 22 -65 21 -85 -1z m-83 -310 c41 -24
69 -83 69 -146 0 -60 -20 -103 -63 -140 -45 -38 -125 -37 -171 1 -40 34 -59
79 -59 138 0 135 113 209 224 147z"/>
<path d="M2168 2139 c-18 -10 -24 -52 -12 -83 9 -24 69 -31 99 -12 29 19 34
66 9 90 -17 18 -70 21 -96 5z"/>
<path d="M5773 2143 c-8 -3 -13 -23 -13 -48 0 -35 5 -47 21 -56 27 -14 85 -3
93 17 10 26 7 69 -6 82 -12 12 -71 15 -95 5z"/>
<path d="M7493 2143 c-8 -3 -13 -23 -13 -48 0 -35 5 -47 21 -56 27 -14 85 -3
93 17 10 26 7 69 -6 82 -12 12 -71 15 -95 5z"/>
<path d="M6696 2058 c-9 -12 -16 -42 -16 -65 l0 -43 -38 0 c-45 0 -62 -14 -62
-50 0 -36 17 -50 62 -50 l38 0 0 -152 c0 -84 5 -170 11 -191 14 -52 57 -77
129 -77 68 0 100 19 100 59 0 38 -19 52 -61 45 -56 -9 -60 4 -57 167 l3 144
53 3 c45 3 55 7 64 28 8 18 8 30 0 48 -9 21 -19 25 -64 28 l-53 3 -3 45 c-2
25 -11 53 -19 62 -23 25 -68 23 -87 -4z"/>
<path d="M842 1969 c-124 -23 -206 -134 -205 -279 0 -116 43 -192 138 -243 60
-32 201 -31 268 1 53 27 72 52 63 88 -9 35 -47 41 -96 15 -57 -30 -145 -29
-190 2 -18 12 -41 38 -52 57 l-18 35 181 5 c175 5 181 6 200 29 51 62 -39 233
-145 276 -45 18 -95 23 -144 14z m105 -118 c41 -19 80 -71 68 -91 -7 -11 -248
-14 -258 -4 -8 9 16 55 41 77 41 38 92 44 149 18z"/>
<path d="M1423 1969 c-108 -20 -181 -106 -198 -235 -30 -221 173 -385 352
-284 29 17 53 26 53 21 0 -19 32 -41 60 -41 56 0 60 19 60 271 0 204 -2 229
-18 249 -31 38 -88 26 -104 -22 -2 -5 -24 2 -48 15 -53 29 -99 37 -157 26z
m137 -128 c48 -34 70 -79 70 -143 0 -105 -54 -168 -145 -168 -59 0 -102 27
-130 81 -19 36 -19 132 -1 167 43 83 137 112 206 63z"/>
<path d="M2627 1966 c-26 -7 -60 -25 -76 -40 -31 -29 -41 -32 -41 -12 0 41
-73 62 -104 30 -14 -13 -16 -50 -16 -248 0 -213 2 -234 18 -249 24 -22 65 -22
85 1 13 14 16 49 19 184 3 160 4 167 27 192 33 35 92 51 137 36 57 -19 64 -46
64 -233 0 -146 2 -166 18 -180 24 -22 65 -21 85 1 14 16 17 44 17 188 0 192
-12 253 -57 296 -26 24 -40 30 -105 42 -13 2 -45 -2 -71 -8z"/>
<path d="M3170 1970 c-73 -14 -142 -69 -177 -139 -26 -53 -30 -189 -8 -248 23
-59 79 -121 130 -144 75 -35 187 -19 242 33 l23 21 0 -37 c0 -103 -91 -147
-220 -107 -36 12 -75 21 -87 21 -25 0 -43 -27 -43 -65 0 -21 8 -30 43 -45 146
-65 326 -32 395 72 l27 41 3 278 c2 177 -1 285 -7 297 -21 39 -82 32 -102 -12
l-12 -25 -36 24 c-50 33 -115 46 -171 35z m141 -126 c96 -49 99 -235 4 -294
-43 -27 -119 -27 -163 0 -68 41 -92 158 -49 235 42 75 129 100 208 59z"/>
<path d="M4158 1970 c-20 -4 -55 -18 -77 -33 l-39 -26 -16 24 c-18 28 -72 35
-94 13 -9 -9 -12 -101 -12 -354 0 -372 -1 -367 57 -366 50 0 63 31 63 150 0
100 1 104 18 89 50 -46 160 -61 230 -31 47 19 98 68 125 119 25 48 35 184 18
237 -41 125 -155 199 -273 178z m102 -129 c14 -9 35 -37 48 -61 58 -115 -9
-250 -126 -250 -91 0 -147 62 -147 165 0 77 25 122 85 153 50 26 97 23 140 -7z"/>
<path d="M4721 1969 c-79 -15 -150 -77 -186 -162 -18 -43 -20 -163 -3 -218 15
-51 70 -114 122 -141 49 -25 163 -35 222 -19 66 18 108 51 112 89 3 26 -1 34
-23 44 -22 10 -33 8 -71 -10 -96 -47 -204 -21 -244 58 l-20 39 179 3 c159 3
181 5 200 22 25 23 26 45 6 113 -37 125 -167 206 -294 182z m91 -109 c40 -12
88 -61 88 -91 0 -18 -8 -19 -130 -19 -122 0 -130 1 -130 19 0 29 47 80 83 90
43 12 47 12 89 1z"/>
<path d="M6175 1970 c-187 -28 -270 -295 -142 -461 42 -55 96 -82 174 -87 55
-4 69 -1 118 27 30 17 55 27 55 22 0 -19 32 -41 60 -41 56 0 60 19 60 271 0
204 -2 229 -18 249 -31 38 -88 26 -104 -22 -2 -6 -21 0 -42 13 -45 26 -104 37
-161 29z m135 -129 c46 -33 70 -79 70 -138 0 -67 -18 -111 -59 -146 -46 -38
-126 -39 -171 -1 -44 38 -60 75 -60 141 0 59 22 112 59 140 44 35 115 36 161
4z"/>
<path d="M7295 1973 c-11 -2 -30 -6 -42 -9 -13 -2 -38 -18 -58 -35 -25 -22
-35 -27 -35 -16 0 44 -89 66 -110 28 -6 -12 -10 -110 -10 -249 0 -209 2 -230
18 -245 24 -22 65 -21 85 1 14 16 17 43 17 171 0 121 3 160 16 187 24 50 62
66 133 58 53 -6 60 -4 70 14 30 56 -17 109 -84 95z"/>
<path d="M7901 1969 c-156 -30 -246 -197 -196 -366 35 -116 124 -183 244 -183
118 0 201 37 201 89 0 15 -5 32 -12 39 -16 16 -57 15 -88 -3 -38 -22 -126 -19
-166 5 -40 25 -74 92 -74 146 0 54 37 124 79 148 48 28 117 26 165 -3 31 -20
42 -22 62 -12 26 12 33 56 14 91 -20 38 -146 65 -229 49z"/>
<path d="M8705 1970 c-84 -13 -144 -59 -186 -140 -20 -38 -24 -60 -24 -135 0
-78 4 -97 27 -141 53 -100 132 -140 261 -132 121 8 189 58 157 117 -13 25 -65
28 -94 6 -29 -22 -124 -19 -163 5 -101 61 -95 242 10 297 45 24 114 21 159 -6
24 -14 45 -20 58 -16 23 7 35 44 26 79 -12 47 -134 82 -231 66z"/>
<path d="M9210 1970 c-117 -21 -200 -135 -200 -274 0 -158 102 -276 238 -276
55 0 113 19 144 47 10 9 19 14 21 12 1 -2 7 -13 13 -24 14 -25 75 -33 93 -12
8 11 11 83 9 263 l-3 248 -24 12 c-30 15 -63 4 -76 -24 -5 -12 -12 -21 -15
-19 -66 40 -143 58 -200 47z m132 -121 c37 -20 69 -77 75 -132 11 -106 -52
-187 -145 -187 -91 0 -145 60 -146 164 -1 78 23 123 84 154 45 23 90 23 132 1z"/>
<path d="M9925 1970 c-39 -9 -88 -34 -104 -54 -18 -21 -31 -20 -31 2 0 27 -20
42 -56 42 -60 0 -64 -17 -64 -260 0 -243 5 -263 59 -268 18 -2 39 2 45 8 7 7
13 75 16 180 6 193 13 214 89 239 36 11 48 11 79 -1 56 -21 62 -42 62 -223 0
-180 7 -205 60 -205 56 0 60 14 60 206 0 96 -5 195 -11 219 -12 47 -59 103
-93 109 -53 11 -83 13 -111 6z"/>
<path d="M10451 1969 c-96 -18 -175 -94 -202 -194 -17 -60 -5 -164 25 -223 49
-97 128 -137 253 -130 94 6 159 34 169 75 4 14 2 33 -3 42 -14 22 -68 26 -95
7 -34 -24 -123 -21 -166 6 -68 42 -91 146 -49 228 41 82 139 109 220 60 32
-19 42 -21 63 -12 26 13 33 56 14 92 -20 38 -146 65 -229 49z"/>
<path d="M10971 1969 c-133 -25 -219 -148 -209 -298 12 -164 122 -258 291
-249 81 4 140 28 170 70 19 25 19 28 3 52 -20 31 -44 33 -96 6 -52 -27 -134
-27 -178 0 -29 18 -72 73 -72 93 0 4 75 7 168 7 192 0 215 6 220 60 8 84 -52
188 -134 231 -58 31 -103 39 -163 28z m86 -109 c24 0 83 -62 83 -86 l0 -24
-130 0 c-84 0 -130 4 -130 10 0 17 27 65 44 80 20 16 75 30 101 24 11 -2 25
-4 32 -4z"/>
<path d="M11635 1973 c-53 -9 -67 -16 -100 -44 -23 -21 -35 -26 -35 -17 0 43
-89 66 -110 29 -6 -12 -10 -110 -10 -250 0 -252 2 -261 60 -261 52 0 60 26 60
193 0 163 9 201 57 232 19 13 38 15 82 10 47 -5 61 -3 74 10 45 45 -7 110 -78
98z"/>
<path d="M2167 1942 c-15 -16 -17 -48 -17 -243 0 -249 4 -269 59 -269 58 0 61
14 61 264 0 138 -4 235 -10 247 -14 25 -71 26 -93 1z"/>
<path d="M5772 1948 c-9 -9 -12 -79 -12 -253 0 -174 3 -244 12 -253 16 -16 70
-16 86 0 9 9 12 79 12 253 0 174 -3 244 -12 253 -7 7 -26 12 -43 12 -17 0 -36
-5 -43 -12z"/>
<path d="M7492 1948 c-9 -9 -12 -79 -12 -253 0 -174 3 -244 12 -253 16 -16 70
-16 86 0 9 9 12 79 12 253 0 174 -3 244 -12 253 -7 7 -26 12 -43 12 -17 0 -36
-5 -43 -12z"/>
<path d="M4249 943 c-11 -13 -15 -83 -17 -338 -2 -198 1 -332 7 -348 12 -31
52 -44 87 -28 24 11 24 11 24 168 0 184 9 216 74 247 49 24 100 13 130 -27 19
-26 21 -44 24 -199 1 -106 7 -177 13 -185 16 -18 64 -16 84 3 14 15 16 42 13
218 -3 171 -6 206 -21 234 -49 89 -187 105 -271 32 -18 -17 -36 -30 -40 -30
-3 0 -6 55 -6 123 0 82 -4 127 -12 135 -17 17 -73 15 -89 -5z"/>
<path d="M7096 944 c-14 -13 -16 -59 -16 -353 0 -315 1 -339 18 -354 26 -24
68 -21 86 5 13 18 16 53 16 178 0 136 2 159 20 187 25 41 84 60 137 42 54 -18
63 -50 63 -237 0 -141 2 -161 18 -175 26 -24 68 -21 86 5 13 18 16 52 16 167
0 199 -13 266 -59 312 -49 50 -118 60 -188 29 -26 -11 -58 -31 -70 -42 l-23
-21 0 114 c0 87 -4 120 -16 137 -18 26 -65 30 -88 6z"/>
<path d="M8386 938 c-14 -19 -16 -70 -16 -348 0 -359 2 -370 59 -370 54 0 59
19 63 203 l3 169 32 28 c59 53 141 48 170 -10 9 -17 13 -76 13 -185 0 -129 3
-165 16 -183 19 -28 64 -29 88 -3 16 18 17 40 14 213 -3 177 -5 197 -26 235
-28 54 -71 77 -142 77 -57 0 -98 -16 -137 -53 -12 -12 -25 -21 -28 -21 -3 0
-5 54 -5 119 0 95 -3 123 -16 135 -23 24 -70 20 -88 -6z"/>
<path d="M3887 852 c-10 -11 -17 -36 -17 -60 0 -39 -2 -42 -28 -42 -40 0 -72
-26 -72 -59 0 -37 17 -51 62 -51 l38 0 0 -160 c0 -181 9 -219 59 -244 35 -19
109 -21 146 -4 29 13 43 53 28 77 -7 11 -23 15 -49 14 -62 -4 -64 2 -64 168
l0 149 50 0 c40 0 52 4 64 23 32 48 -4 87 -80 87 -33 0 -34 1 -34 38 0 21 -7
48 -16 60 -19 27 -64 29 -87 4z"/>
<path d="M8026 854 c-10 -9 -16 -33 -16 -60 0 -40 -2 -44 -24 -44 -67 0 -101
-41 -72 -85 11 -17 27 -25 53 -27 l38 -3 5 -177 c5 -177 5 -178 32 -205 23
-22 38 -28 90 -31 53 -3 67 -1 91 18 50 39 27 98 -33 85 -55 -12 -60 0 -60
166 l0 149 48 0 c55 0 72 12 72 51 0 35 -33 59 -81 59 -36 0 -36 1 -41 45 -3
25 -11 52 -18 60 -16 20 -64 19 -84 -1z"/>
<path d="M10966 848 c-9 -12 -16 -39 -16 -59 0 -34 -2 -37 -36 -42 -46 -8 -64
-23 -64 -56 0 -37 17 -51 62 -51 l38 0 0 -160 c0 -188 9 -222 64 -245 79 -33
176 -9 176 44 0 38 -21 54 -60 46 -55 -12 -60 0 -60 166 l0 149 48 0 c59 0 88
24 78 65 -7 29 -40 45 -92 45 -34 0 -34 1 -34 43 0 30 -6 49 -18 60 -26 24
-68 21 -86 -5z"/>
<path d="M5075 765 c-5 -2 -22 -6 -37 -9 -15 -4 -43 -20 -63 -37 -32 -28 -35
-29 -35 -11 0 21 -34 52 -58 52 -7 0 -24 -11 -37 -25 l-25 -24 0 -218 c0 -244
5 -266 56 -271 57 -6 64 12 64 171 0 165 9 206 52 242 29 25 37 27 91 20 39
-4 63 -2 73 6 18 15 18 73 1 88 -15 12 -66 22 -82 16z"/>
<path d="M5425 761 c-56 -14 -104 -43 -141 -83 -53 -59 -68 -101 -68 -193 -1
-70 3 -87 29 -134 51 -92 133 -141 240 -141 78 0 142 26 196 80 132 132 91
370 -76 449 -50 23 -135 34 -180 22z m125 -123 c33 -17 51 -35 68 -68 40 -80
25 -159 -43 -219 -36 -31 -42 -33 -97 -29 -50 4 -63 9 -93 38 -85 82 -64 234
38 280 54 25 73 25 127 -2z"/>
<path d="M6590 755 c-63 -20 -114 -66 -146 -132 -24 -47 -28 -69 -28 -137 0
-94 21 -150 81 -209 76 -77 202 -90 288 -29 l45 32 0 -40 c0 -30 -7 -48 -29
-72 -25 -29 -35 -32 -95 -36 -47 -3 -80 1 -111 13 -61 23 -96 17 -113 -18 -12
-24 -11 -31 2 -51 22 -35 123 -59 222 -54 86 4 136 23 180 66 58 58 59 65 62
351 2 146 1 275 -3 288 -13 51 -98 51 -111 -1 l-6 -24 -46 29 c-58 35 -130 44
-192 24z m157 -116 c56 -27 86 -82 85 -156 -1 -96 -63 -163 -152 -163 -86 0
-150 68 -150 162 0 79 33 136 95 164 43 19 72 17 122 -7z"/>
<path d="M9123 756 c-130 -41 -204 -159 -190 -306 12 -135 109 -228 248 -238
124 -9 241 49 225 112 -9 37 -48 44 -103 17 -60 -29 -139 -29 -183 2 -38 25
-75 81 -65 97 4 6 73 10 184 10 124 0 181 4 189 12 7 7 12 33 12 58 0 98 -85
206 -184 235 -59 18 -78 18 -133 1z m147 -126 c33 -24 56 -78 37 -86 -25 -9
-250 1 -254 12 -7 20 43 79 77 91 44 16 105 8 140 -17z"/>
<path d="M9989 761 c-115 -37 -189 -142 -189 -270 0 -167 102 -282 251 -281
44 0 121 28 133 49 11 17 23 13 29 -9 6 -24 51 -36 83 -21 l24 11 0 250 0 250
-25 16 c-21 14 -31 15 -51 5 -14 -6 -28 -20 -31 -31 -3 -11 -6 -20 -8 -20 -1
0 -22 11 -46 24 -48 27 -130 40 -170 27z m150 -129 c44 -33 64 -69 69 -125 9
-110 -53 -187 -150 -187 -165 0 -199 280 -42 330 39 12 93 4 123 -18z"/>
<path d="M10680 758 c-19 -5 -49 -21 -67 -34 -38 -29 -39 -29 -46 -4 -3 11
-17 25 -31 31 -20 10 -30 9 -51 -5 l-25 -16 0 -240 c0 -265 2 -274 64 -268 48
5 56 32 56 203 0 131 3 154 20 182 28 46 52 56 120 48 55 -6 59 -5 76 20 21
32 7 70 -32 85 -30 12 -37 11 -84 -2z"/>
<path d="M11455 761 c-102 -26 -153 -92 -140 -179 10 -67 51 -101 173 -140
108 -35 129 -53 118 -98 -4 -16 -18 -27 -44 -35 -49 -14 -106 0 -157 41 -21
17 -48 30 -61 30 -27 0 -54 -25 -54 -50 0 -32 65 -88 122 -105 179 -53 330 39
297 183 -12 57 -62 96 -162 126 -94 29 -117 45 -117 81 0 66 127 73 179 11 16
-19 62 -21 79 -4 19 19 14 63 -11 86 -46 44 -157 70 -222 53z"/>
<path d="M5885 735 c-24 -23 -25 -28 -25 -169 0 -80 5 -168 11 -196 21 -99
103 -159 215 -160 109 0 173 34 210 114 22 47 24 63 24 224 0 159 -2 174 -20
192 -26 26 -46 25 -75 -5 -25 -24 -25 -27 -25 -190 l0 -167 -29 -29 c-24 -24
-38 -29 -76 -29 -100 0 -115 31 -115 245 0 142 -2 157 -20 175 -26 26 -46 25
-75 -5z"/>
</g>
</svg>
